<?xml version="1.0" encoding="UTF-8"?>
<svg id="Layer_1" xmlns="http://www.w3.org/2000/svg" version="1.1" viewBox="0 0 32 32">
  <!-- Generator: Adobe Illustrator 29.7.1, SVG Export Plug-In . SVG Version: 2.1.1 Build 8)  -->
  <defs>
    <style>
      .st0 {
        fill: #f72a72;
      }

      .st1 {
        fill: #044ef4;
      }
    </style>
  </defs>
  <path class="st1" d="M25.86,19.19c0,.63-.18,1.05-.52,1.39-2.06,2.04-4.1,4.1-6.16,6.14-.71.71-1.75.75-2.46.1-.75-.68-.78-1.82-.05-2.55.92-.94,1.86-1.88,2.8-2.8,1.12-1.12,2.25-2.24,3.39-3.36.55-.53,1.28-.68,1.96-.37.68.29,1.02.84,1.04,1.44Z"/>
  <path class="st1" d="M6.28,12.72c.02-.32.18-.73.52-1.05,2.04-2.04,4.09-4.09,6.13-6.13.42-.42.92-.65,1.52-.55.71.1,1.2.5,1.44,1.18.23.68.06,1.3-.44,1.82-.97.99-1.96,1.96-2.95,2.95-1.07,1.07-2.16,2.14-3.24,3.19-.55.53-1.28.66-1.96.37-.63-.28-1.04-.91-1.02-1.78Z"/>
  <path class="st0" d="M7.69,15.06c.23-.02.42,0,.62-.03.49-.06.91-.28,1.26-.63.39-.41.79-.79,1.18-1.22.08.06.13.1.16.15,1.51,1.51,3.03,3.03,4.54,4.54.5.5.66,1.1.47,1.78-.19.65-.63,1.07-1.3,1.22-.57.13-1.12.02-1.54-.41-1.8-1.78-3.58-3.57-5.4-5.4Z"/>
  <path class="st0" d="M24.47,17.23c-.92-.1-1.59.26-2.14.88-.31.34-.63.63-.96.97-.06-.06-.11-.1-.16-.15-1.51-1.51-3.03-3.03-4.54-4.54-.5-.5-.66-1.1-.47-1.78.19-.65.65-1.07,1.31-1.22.58-.13,1.13,0,1.57.42,1.77,1.75,3.52,3.5,5.27,5.25.03.03.05.06.11.16Z"/>
</svg>